<?xml version="1.0" encoding="utf-8"?>
<!-- Generator: Adobe Illustrator 16.0.0, SVG Export Plug-In . SVG Version: 6.00 Build 0)  -->
<!DOCTYPE svg PUBLIC "-//W3C//DTD SVG 1.1//EN" "http://www.w3.org/Graphics/SVG/1.1/DTD/svg11.dtd">
<svg version="1.1" id="Layer_1" xmlns="http://www.w3.org/2000/svg" xmlns:xlink="http://www.w3.org/1999/xlink" x="0px" y="0px"
	 width="571.152px" height="162.59px" viewBox="0 0 571.152 162.59" enable-background="new 0 0 571.152 162.59"
	 xml:space="preserve">
<g>
	<rect x="403.945" fill="#2F2C25" width="167.207" height="162.207"/>
	<g>
		<path fill="#F0131E" d="M0,162.251C0,108.167,0,54.083,0,0c134.648,0,269.297,0,403.945,0c0,54.083,0,108.167,0,162.251
			c-0.673-0.014-1.346-0.042-2.017-0.042c-133.304-0.002-266.608-0.002-399.912,0C1.345,162.209,0.672,162.237,0,162.251z
			 M37.071,149.398c0-21.373,0-42.569,0-64.171c0.271,0.805,0.468,1.209,0.541,1.634c2.045,11.973,4.073,23.95,6.113,35.923
			c1.447,8.499,2.925,16.991,4.336,25.495c0.156,0.936,0.521,1.21,1.409,1.202c3.59-0.032,7.182-0.043,10.771,0.005
			c1.006,0.014,1.358-0.344,1.462-1.328c0.156-1.502,0.49-2.981,0.742-4.473c2.197-13.025,4.395-26.053,6.59-39.08
			c1.038-6.164,2.074-12.329,3.11-18.494c0.079,0.007,0.157,0.015,0.235,0.021c0,0.609,0,1.218,0,1.827
			c0.001,19.861,0.018,39.722-0.033,59.581c-0.004,1.546,0.414,1.995,1.966,1.964c4.822-0.099,9.647-0.036,14.473-0.036
			c9.874,0,19.748-0.016,29.622,0.021c1.193,0.003,1.804-0.184,1.897-1.596c0.152-2.284,0.597-4.549,0.915-6.822
			c0.58-4.145,1.159-8.291,1.746-12.487c6.4,0,12.652,0,18.934,0c0.069,0.315,0.131,0.524,0.161,0.738
			c0.861,6.1,1.796,12.189,2.522,18.305c0.188,1.581,0.753,1.873,2.18,1.869c14.361-0.041,28.723-0.021,43.085-0.017
			c0.553,0,1.104,0,1.929,0c0-14.859,0-29.572,0-44.307c2.011-0.288,3.757-0.537,5.531-0.791c0.119,0.375,0.194,0.579,0.249,0.79
			c3.708,14.123,7.442,28.238,11.079,42.379c0.401,1.562,1.025,1.991,2.596,1.969c6.73-0.094,13.464-0.04,20.195-0.04
			c0.603,0,1.205,0,1.995,0c-0.188-0.8-0.294-1.396-0.463-1.972c-4.738-16.159-9.443-32.329-14.278-48.459
			c-0.569-1.898-0.218-2.881,1.202-4.239c8.236-7.887,12.637-17.558,12.926-29.365c0.724,4.173,1.413,8.021,2.058,11.879
			c3.944,23.576,7.896,47.15,11.777,70.736c0.217,1.314,0.751,1.469,1.854,1.463c7.797-0.043,15.596-0.036,23.394-0.043
			c1.227-0.001,2.452,0,3.833,0c6.432-40.524,12.842-80.914,19.252-121.305c0.101,0.007,0.199,0.014,0.299,0.021
			c0,40.365,0,80.73,0,121.134c15.607,0,31.048,0,46.515,0c0-8.227,0-16.314,0-24.555c-7.373,0-14.589,0-21.868,0
			c0-10.44,0-20.726,0-31.216c7.355,0,14.611,0,21.879,0c0-8.411,0-16.618,0-25.021c-7.403,0-14.661,0-21.867,0
			c0-10.271,0-20.348,0-30.578c0.777,0,1.441,0,2.105,0c5.89,0,11.78,0.002,17.672,0c2.23-0.002,2.234-0.004,2.235-2.164
			c0.002-6.9,0.001-13.801,0-20.701c-0.001-2.178-0.004-2.183-2.208-2.183c-19.243-0.001-38.485-0.001-57.728-0.001
			c-2.693,0-5.387,0.037-8.078-0.016c-1.038-0.021-1.529,0.302-1.629,1.385c-0.154,1.67-0.436,3.33-0.661,4.994
			c-1.5,11.043-2.991,22.088-4.498,33.129c-1.536,11.264-3.085,22.525-4.637,33.786c-0.367,2.665-0.764,5.327-1.184,8.253
			c-0.251-0.383-0.346-0.463-0.358-0.555c-1.693-12.43-3.382-24.859-5.07-37.289c-1.899-13.983-3.823-27.965-5.66-41.957
			c-0.177-1.352-0.568-1.771-1.932-1.76c-7.236,0.063-14.474,0.027-21.711,0.037c-0.526,0-1.054,0.09-1.674,0.148
			c0.885,7.071,1.743,13.938,2.602,20.807c-1.198-1.412-2.09-2.901-3.112-4.295c-7.468-10.182-17.362-16.095-30.114-16.518
			c-8.294-0.275-16.603-0.117-24.905-0.148c-2.325-0.009-2.328,0.001-2.331,2.394c-0.033,38.036-0.066,76.073-0.1,114.11
			c0,0.646,0,1.291,0,1.938c-2.164-12.819-4.096-25.652-6.021-38.486c-1.954-13.012-3.898-26.026-5.856-39.037
			c-1.965-13.066-3.97-26.127-5.875-39.203c-0.201-1.379-0.676-1.747-1.996-1.741c-8.246,0.035-16.492-0.005-24.739-0.018
			c-2.069-0.003-4.138-0.001-6.365-0.001c-6.194,41.252-12.368,82.369-18.542,123.486c-0.1-0.007-0.199-0.015-0.299-0.021
			c0-41.084,0-82.167,0-123.422c-0.755,0-1.363,0-1.972,0c-9.088,0-18.178,0.059-27.265-0.049c-1.806-0.021-2.212,0.67-2.442,2.238
			c-0.976,6.646-2.065,13.275-3.125,19.91c-2.096,13.102-4.196,26.201-6.3,39.301c-0.424,2.641-0.876,5.276-1.314,7.915
			c-0.073-0.013-0.146-0.024-0.219-0.037c-3.598-23.054-7.196-46.108-10.795-69.167c-10.561,0-20.917,0-31.29,0
			c0,45.514,0,90.918,0,136.376C20.737,149.398,28.798,149.398,37.071,149.398z M346.175,12.979c0,45.568,0,90.958,0,136.375
			c15.159,0,30.165,0,45.273,0c0-8.195,0-16.291,0-24.593c-6.952,0-13.814,0-20.847,0c0-37.361,0-74.517,0-111.782
			C362.381,12.979,354.333,12.979,346.175,12.979z"/>
		<path fill-rule="evenodd" clip-rule="evenodd" fill="#FFFFFF" d="M0,162.251c0.672-0.014,1.345-0.042,2.017-0.042
			c133.304-0.002,266.608-0.002,399.912,0c0.671,0,1.344,0.028,2.017,0.042c-0.056,0.112-0.106,0.316-0.17,0.322
			c-0.446,0.027-0.896,0.014-1.345,0.014c-133.639,0-267.277,0-400.916-0.014C1.01,162.573,0.505,162.363,0,162.251z"/>
		<path fill-rule="evenodd" clip-rule="evenodd" fill="#FFFFFF" d="M37.071,149.398c-8.273,0-16.334,0-24.527,0
			c0-45.458,0-90.862,0-136.376c10.373,0,20.729,0,31.29,0c3.599,23.059,7.197,46.113,10.795,69.167
			c0.072,0.013,0.146,0.024,0.219,0.037c0.438-2.639,0.891-5.274,1.314-7.915c2.104-13.1,4.204-26.199,6.3-39.301
			c1.06-6.635,2.149-13.264,3.125-19.91c0.23-1.568,0.637-2.26,2.442-2.238c9.087,0.107,18.177,0.049,27.265,0.049
			c0.608,0,1.217,0,1.972,0c0,41.255,0,82.338,0,123.422c0.1,0.007,0.199,0.015,0.299,0.021
			c6.174-41.117,12.348-82.234,18.542-123.486c2.228,0,4.296-0.002,6.365,0.001c8.247,0.013,16.493,0.053,24.739,0.018
			c1.32-0.006,1.795,0.362,1.996,1.741c1.905,13.076,3.91,26.137,5.875,39.203c1.958,13.011,3.902,26.025,5.856,39.037
			c1.926,12.834,3.857,25.667,6.021,38.486c0-0.646,0-1.292,0-1.938c0.033-38.037,0.066-76.074,0.1-114.11
			c0.003-2.393,0.006-2.402,2.331-2.394c8.303,0.031,16.611-0.127,24.905,0.148c12.752,0.423,22.646,6.336,30.114,16.518
			c1.022,1.394,1.914,2.883,3.112,4.295c-0.858-6.868-1.717-13.735-2.602-20.807c0.62-0.059,1.147-0.148,1.674-0.148
			c7.237-0.01,14.475,0.026,21.711-0.037c1.363-0.012,1.755,0.408,1.932,1.76c1.837,13.992,3.761,27.974,5.66,41.957
			c1.688,12.43,3.377,24.859,5.07,37.289c0.013,0.092,0.107,0.172,0.358,0.555c0.42-2.926,0.816-5.588,1.184-8.253
			c1.552-11.261,3.101-22.522,4.637-33.786c1.507-11.041,2.998-22.086,4.498-33.129c0.226-1.664,0.507-3.324,0.661-4.994
			c0.1-1.083,0.591-1.406,1.629-1.385c2.691,0.053,5.385,0.016,8.078,0.016c19.242,0,38.484,0,57.728,0.001
			c2.204,0,2.207,0.005,2.208,2.183c0.001,6.9,0.002,13.801,0,20.701c-0.001,2.16-0.005,2.162-2.235,2.164
			c-5.892,0.002-11.782,0-17.672,0c-0.664,0-1.328,0-2.105,0c0,10.23,0,20.307,0,30.578c7.206,0,14.464,0,21.867,0
			c0,8.402,0,16.609,0,25.021c-7.268,0-14.523,0-21.879,0c0,10.49,0,20.775,0,31.216c7.279,0,14.495,0,21.868,0
			c0,8.24,0,16.328,0,24.555c-15.467,0-30.907,0-46.515,0c0-40.403,0-80.769,0-121.134c-0.1-0.007-0.198-0.014-0.299-0.021
			c-6.41,40.391-12.82,80.78-19.252,121.305c-1.381,0-2.606-0.001-3.833,0c-7.798,0.007-15.597,0-23.394,0.043
			c-1.104,0.006-1.638-0.148-1.854-1.463c-3.881-23.586-7.833-47.16-11.777-70.736c-0.645-3.857-1.334-7.706-2.058-11.879
			c-0.289,11.808-4.689,21.479-12.926,29.365c-1.42,1.358-1.771,2.341-1.202,4.239c4.835,16.13,9.54,32.3,14.278,48.459
			c0.169,0.576,0.275,1.172,0.463,1.972c-0.79,0-1.393,0-1.995,0c-6.731,0-13.465-0.054-20.195,0.04
			c-1.57,0.022-2.194-0.407-2.596-1.969c-3.637-14.141-7.371-28.256-11.079-42.379c-0.055-0.211-0.13-0.415-0.249-0.79
			c-1.774,0.254-3.521,0.503-5.531,0.791c0,14.734,0,29.447,0,44.307c-0.824,0-1.376,0-1.929,0
			c-14.362-0.004-28.724-0.024-43.085,0.017c-1.427,0.004-1.991-0.288-2.18-1.869c-0.727-6.115-1.661-12.205-2.522-18.305
			c-0.03-0.214-0.092-0.423-0.161-0.738c-6.281,0-12.533,0-18.934,0c-0.587,4.196-1.166,8.343-1.746,12.487
			c-0.318,2.273-0.763,4.538-0.915,6.822c-0.094,1.412-0.704,1.599-1.897,1.596c-9.874-0.036-19.748-0.021-29.622-0.021
			c-4.825,0-9.65-0.062-14.473,0.036c-1.552,0.031-1.97-0.418-1.966-1.964c0.051-19.859,0.034-39.72,0.033-59.581
			c0-0.609,0-1.218,0-1.827c-0.078-0.007-0.156-0.015-0.235-0.021c-1.036,6.165-2.072,12.33-3.11,18.494
			c-2.195,13.027-4.393,26.055-6.59,39.08c-0.252,1.491-0.586,2.971-0.742,4.473c-0.104,0.984-0.456,1.342-1.462,1.328
			c-3.59-0.048-7.182-0.037-10.771-0.005c-0.888,0.008-1.253-0.267-1.409-1.202c-1.411-8.504-2.889-16.996-4.336-25.495
			c-2.04-11.973-4.068-23.95-6.113-35.923c-0.073-0.425-0.271-0.829-0.541-1.634C37.071,106.829,37.071,128.025,37.071,149.398z
			 M191.861,81.139c0.824-0.088,1.44-0.104,2.033-0.226c5.696-1.164,9.371-4.801,11.718-9.879
			c2.776-6.008,2.938-12.339,1.828-18.744c-0.796-4.594-2.607-8.686-6.388-11.643c-2.661-2.081-5.698-3.145-9.191-3.205
			C191.861,52.042,191.861,66.47,191.861,81.139z M139.515,106.592c-2.264-18.784-4.517-37.475-6.771-56.165
			c-0.11,0.012-0.22,0.024-0.33,0.037c-2.166,18.676-4.334,37.35-6.514,56.128C130.473,106.592,134.879,106.592,139.515,106.592z"/>
		<path fill-rule="evenodd" clip-rule="evenodd" fill="#FFFFFF" d="M346.175,12.979c8.158,0,16.206,0,24.427,0
			c0,37.266,0,74.421,0,111.782c7.032,0,13.895,0,20.847,0c0,8.302,0,16.397,0,24.593c-15.108,0-30.114,0-45.273,0
			C346.175,103.938,346.175,58.548,346.175,12.979z"/>
		<path fill-rule="evenodd" clip-rule="evenodd" fill="#F0131E" d="M191.861,81.139c0-14.669,0-29.097,0-43.696
			c3.493,0.061,6.53,1.124,9.191,3.205c3.78,2.957,5.592,7.049,6.388,11.643c1.109,6.405,0.948,12.736-1.828,18.744
			c-2.347,5.078-6.021,8.715-11.718,9.879C193.302,81.034,192.686,81.051,191.861,81.139z"/>
		<path fill-rule="evenodd" clip-rule="evenodd" fill="#F0131E" d="M139.515,106.592c-4.636,0-9.042,0-13.614,0
			c2.18-18.778,4.348-37.452,6.514-56.128c0.11-0.013,0.22-0.025,0.33-0.037C134.998,69.117,137.251,87.808,139.515,106.592z"/>
	</g>
	<path fill="#F0131E" d="M0,162.251C0,108.167,0,54.083,0,0c134.648,0,269.297,0,403.945,0c0,54.083,0,108.167,0,162.251
		c-0.673-0.014-1.346-0.042-2.017-0.042c-133.304-0.002-266.608-0.002-399.912,0C1.345,162.209,0.672,162.237,0,162.251z
		 M37.071,149.398c0-21.373,0-42.569,0-64.171c0.271,0.805,0.468,1.209,0.541,1.634c2.045,11.973,4.073,23.95,6.113,35.923
		c1.447,8.499,2.925,16.991,4.336,25.495c0.156,0.936,0.521,1.21,1.409,1.202c3.59-0.032,7.182-0.043,10.771,0.005
		c1.006,0.014,1.358-0.344,1.462-1.328c0.156-1.502,0.49-2.981,0.742-4.473c2.197-13.025,4.395-26.053,6.59-39.08
		c1.038-6.164,2.074-12.329,3.11-18.494c0.079,0.007,0.157,0.015,0.235,0.021c0,0.609,0,1.218,0,1.827
		c0.001,19.861,0.018,39.722-0.033,59.581c-0.004,1.546,0.414,1.995,1.966,1.964c4.822-0.099,9.647-0.036,14.473-0.036
		c9.874,0,19.748-0.016,29.622,0.021c1.193,0.003,1.804-0.184,1.897-1.596c0.152-2.284,0.597-4.549,0.915-6.822
		c0.58-4.145,1.159-8.291,1.746-12.487c6.4,0,12.652,0,18.934,0c0.069,0.315,0.131,0.524,0.161,0.738
		c0.861,6.1,1.796,12.189,2.522,18.305c0.188,1.581,0.753,1.873,2.18,1.869c14.361-0.041,28.723-0.021,43.085-0.017
		c0.553,0,1.104,0,1.929,0c0-14.859,0-29.572,0-44.307c2.011-0.288,3.757-0.537,5.531-0.791c0.119,0.375,0.194,0.579,0.249,0.79
		c3.708,14.123,7.442,28.238,11.079,42.379c0.401,1.562,1.025,1.991,2.596,1.969c6.73-0.094,13.464-0.04,20.195-0.04
		c0.603,0,1.205,0,1.995,0c-0.188-0.8-0.294-1.396-0.463-1.972c-4.738-16.159-9.443-32.329-14.278-48.459
		c-0.569-1.898-0.218-2.881,1.202-4.239c8.236-7.887,12.637-17.558,12.926-29.365c0.724,4.173,1.413,8.021,2.058,11.879
		c3.944,23.576,7.896,47.15,11.777,70.736c0.217,1.314,0.751,1.469,1.854,1.463c7.797-0.043,15.596-0.036,23.394-0.043
		c1.227-0.001,2.452,0,3.833,0c6.432-40.524,12.842-80.914,19.252-121.305c0.101,0.007,0.199,0.014,0.299,0.021
		c0,40.365,0,80.73,0,121.134c15.607,0,31.048,0,46.515,0c0-8.227,0-16.314,0-24.555c-7.373,0-14.589,0-21.868,0
		c0-10.44,0-20.726,0-31.216c7.355,0,14.611,0,21.879,0c0-8.411,0-16.618,0-25.021c-7.403,0-14.661,0-21.867,0
		c0-10.271,0-20.348,0-30.578c0.777,0,1.441,0,2.105,0c5.89,0,11.78,0.002,17.672,0c2.23-0.002,2.234-0.004,2.235-2.164
		c0.002-6.9,0.001-13.801,0-20.701c-0.001-2.178-0.004-2.183-2.208-2.183c-19.243-0.001-38.485-0.001-57.728-0.001
		c-2.693,0-5.387,0.037-8.078-0.016c-1.038-0.021-1.529,0.302-1.629,1.385c-0.154,1.67-0.436,3.33-0.661,4.994
		c-1.5,11.043-2.991,22.088-4.498,33.129c-1.536,11.264-3.085,22.525-4.637,33.786c-0.367,2.665-0.764,5.327-1.184,8.253
		c-0.251-0.383-0.346-0.463-0.358-0.555c-1.693-12.43-3.382-24.859-5.07-37.289c-1.899-13.983-3.823-27.965-5.66-41.957
		c-0.177-1.352-0.568-1.771-1.932-1.76c-7.236,0.063-14.474,0.027-21.711,0.037c-0.526,0-1.054,0.09-1.674,0.148
		c0.885,7.071,1.743,13.938,2.602,20.807c-1.198-1.412-2.09-2.901-3.112-4.295c-7.468-10.182-17.362-16.095-30.114-16.518
		c-8.294-0.275-16.603-0.117-24.905-0.148c-2.325-0.009-2.328,0.001-2.331,2.394c-0.033,38.036-0.066,76.073-0.1,114.11
		c0,0.646,0,1.291,0,1.938c-2.164-12.819-4.096-25.652-6.021-38.486c-1.954-13.012-3.898-26.026-5.856-39.037
		c-1.965-13.066-3.97-26.127-5.875-39.203c-0.201-1.379-0.676-1.747-1.996-1.741c-8.246,0.035-16.492-0.005-24.739-0.018
		c-2.069-0.003-4.138-0.001-6.365-0.001c-6.194,41.252-12.368,82.369-18.542,123.486c-0.1-0.007-0.199-0.015-0.299-0.021
		c0-41.084,0-82.167,0-123.422c-0.755,0-1.363,0-1.972,0c-9.088,0-18.178,0.059-27.265-0.049c-1.806-0.021-2.212,0.67-2.442,2.238
		c-0.976,6.646-2.065,13.275-3.125,19.91c-2.096,13.102-4.196,26.201-6.3,39.301c-0.424,2.641-0.876,5.276-1.314,7.915
		c-0.073-0.013-0.146-0.024-0.219-0.037c-3.598-23.054-7.196-46.108-10.795-69.167c-10.561,0-20.917,0-31.29,0
		c0,45.514,0,90.918,0,136.376C20.737,149.398,28.798,149.398,37.071,149.398z M346.175,12.979c0,45.568,0,90.958,0,136.375
		c15.159,0,30.165,0,45.273,0c0-8.195,0-16.291,0-24.593c-6.952,0-13.814,0-20.847,0c0-37.361,0-74.517,0-111.782
		C362.381,12.979,354.333,12.979,346.175,12.979z"/>
	<path fill-rule="evenodd" clip-rule="evenodd" fill="#FFFFFF" d="M0,162.251c0.672-0.014,1.345-0.042,2.017-0.042
		c133.304-0.002,266.608-0.002,399.912,0c0.671,0,1.344,0.028,2.017,0.042c-0.056,0.112-0.106,0.316-0.17,0.322
		c-0.446,0.027-0.896,0.014-1.345,0.014c-133.639,0-267.277,0-400.916-0.014C1.01,162.573,0.505,162.363,0,162.251z"/>
	<path fill-rule="evenodd" clip-rule="evenodd" fill="#FFFFFF" d="M37.071,149.398c-8.273,0-16.334,0-24.527,0
		c0-45.458,0-90.862,0-136.376c10.373,0,20.729,0,31.29,0c3.599,23.059,7.197,46.113,10.795,69.167
		c0.072,0.013,0.146,0.024,0.219,0.037c0.438-2.639,0.891-5.274,1.314-7.915c2.104-13.1,4.204-26.199,6.3-39.301
		c1.06-6.635,2.149-13.264,3.125-19.91c0.23-1.568,0.637-2.26,2.442-2.238c9.087,0.107,18.177,0.049,27.265,0.049
		c0.608,0,1.217,0,1.972,0c0,41.255,0,82.338,0,123.422c0.1,0.007,0.199,0.015,0.299,0.021
		c6.174-41.117,12.348-82.234,18.542-123.486c2.228,0,4.296-0.002,6.365,0.001c8.247,0.013,16.493,0.053,24.739,0.018
		c1.32-0.006,1.795,0.362,1.996,1.741c1.905,13.076,3.91,26.137,5.875,39.203c1.958,13.011,3.902,26.025,5.856,39.037
		c1.926,12.834,3.857,25.667,6.021,38.486c0-0.646,0-1.292,0-1.938c0.033-38.037,0.066-76.074,0.1-114.11
		c0.003-2.393,0.006-2.402,2.331-2.394c8.303,0.031,16.611-0.127,24.905,0.148c12.752,0.423,22.646,6.336,30.114,16.518
		c1.022,1.394,1.914,2.883,3.112,4.295c-0.858-6.868-1.717-13.735-2.602-20.807c0.62-0.059,1.147-0.148,1.674-0.148
		c7.237-0.01,14.475,0.026,21.711-0.037c1.363-0.012,1.755,0.408,1.932,1.76c1.837,13.992,3.761,27.974,5.66,41.957
		c1.688,12.43,3.377,24.859,5.07,37.289c0.013,0.092,0.107,0.172,0.358,0.555c0.42-2.926,0.816-5.588,1.184-8.253
		c1.552-11.261,3.101-22.522,4.637-33.786c1.507-11.041,2.998-22.086,4.498-33.129c0.226-1.664,0.507-3.324,0.661-4.994
		c0.1-1.083,0.591-1.406,1.629-1.385c2.691,0.053,5.385,0.016,8.078,0.016c19.242,0,38.484,0,57.728,0.001
		c2.204,0,2.207,0.005,2.208,2.183c0.001,6.9,0.002,13.801,0,20.701c-0.001,2.16-0.005,2.162-2.235,2.164
		c-5.892,0.002-11.782,0-17.672,0c-0.664,0-1.328,0-2.105,0c0,10.23,0,20.307,0,30.578c7.206,0,14.464,0,21.867,0
		c0,8.402,0,16.609,0,25.021c-7.268,0-14.523,0-21.879,0c0,10.49,0,20.775,0,31.216c7.279,0,14.495,0,21.868,0
		c0,8.24,0,16.328,0,24.555c-15.467,0-30.907,0-46.515,0c0-40.403,0-80.769,0-121.134c-0.1-0.007-0.198-0.014-0.299-0.021
		c-6.41,40.391-12.82,80.78-19.252,121.305c-1.381,0-2.606-0.001-3.833,0c-7.798,0.007-15.597,0-23.394,0.043
		c-1.104,0.006-1.638-0.148-1.854-1.463c-3.881-23.586-7.833-47.16-11.777-70.736c-0.645-3.857-1.334-7.706-2.058-11.879
		c-0.289,11.808-4.689,21.479-12.926,29.365c-1.42,1.358-1.771,2.341-1.202,4.239c4.835,16.13,9.54,32.3,14.278,48.459
		c0.169,0.576,0.275,1.172,0.463,1.972c-0.79,0-1.393,0-1.995,0c-6.731,0-13.465-0.054-20.195,0.04
		c-1.57,0.022-2.194-0.407-2.596-1.969c-3.637-14.141-7.371-28.256-11.079-42.379c-0.055-0.211-0.13-0.415-0.249-0.79
		c-1.774,0.254-3.521,0.503-5.531,0.791c0,14.734,0,29.447,0,44.307c-0.824,0-1.376,0-1.929,0
		c-14.362-0.004-28.724-0.024-43.085,0.017c-1.427,0.004-1.991-0.288-2.18-1.869c-0.727-6.115-1.661-12.205-2.522-18.305
		c-0.03-0.214-0.092-0.423-0.161-0.738c-6.281,0-12.533,0-18.934,0c-0.587,4.196-1.166,8.343-1.746,12.487
		c-0.318,2.273-0.763,4.538-0.915,6.822c-0.094,1.412-0.704,1.599-1.897,1.596c-9.874-0.036-19.748-0.021-29.622-0.021
		c-4.825,0-9.65-0.062-14.473,0.036c-1.552,0.031-1.97-0.418-1.966-1.964c0.051-19.859,0.034-39.72,0.033-59.581
		c0-0.609,0-1.218,0-1.827c-0.078-0.007-0.156-0.015-0.235-0.021c-1.036,6.165-2.072,12.33-3.11,18.494
		c-2.195,13.027-4.393,26.055-6.59,39.08c-0.252,1.491-0.586,2.971-0.742,4.473c-0.104,0.984-0.456,1.342-1.462,1.328
		c-3.59-0.048-7.182-0.037-10.771-0.005c-0.888,0.008-1.253-0.267-1.409-1.202c-1.411-8.504-2.889-16.996-4.336-25.495
		c-2.04-11.973-4.068-23.95-6.113-35.923c-0.073-0.425-0.271-0.829-0.541-1.634C37.071,106.829,37.071,128.025,37.071,149.398z
		 M191.861,81.139c0.824-0.088,1.44-0.104,2.033-0.226c5.696-1.164,9.371-4.801,11.718-9.879c2.776-6.008,2.938-12.339,1.828-18.744
		c-0.796-4.594-2.607-8.686-6.388-11.643c-2.661-2.081-5.698-3.145-9.191-3.205C191.861,52.042,191.861,66.47,191.861,81.139z
		 M139.515,106.592c-2.264-18.784-4.517-37.475-6.771-56.165c-0.11,0.012-0.22,0.024-0.33,0.037
		c-2.166,18.676-4.334,37.35-6.514,56.128C130.473,106.592,134.879,106.592,139.515,106.592z"/>
	<path fill-rule="evenodd" clip-rule="evenodd" fill="#FFFFFF" d="M346.175,12.979c8.158,0,16.206,0,24.427,0
		c0,37.266,0,74.421,0,111.782c7.032,0,13.895,0,20.847,0c0,8.302,0,16.397,0,24.593c-15.108,0-30.114,0-45.273,0
		C346.175,103.938,346.175,58.548,346.175,12.979z"/>
	<path fill-rule="evenodd" clip-rule="evenodd" fill="#F0131E" d="M191.861,81.139c0-14.669,0-29.097,0-43.696
		c3.493,0.061,6.53,1.124,9.191,3.205c3.78,2.957,5.592,7.049,6.388,11.643c1.109,6.405,0.948,12.736-1.828,18.744
		c-2.347,5.078-6.021,8.715-11.718,9.879C193.302,81.034,192.686,81.051,191.861,81.139z"/>
	<path fill-rule="evenodd" clip-rule="evenodd" fill="#F0131E" d="M139.515,106.592c-4.636,0-9.042,0-13.614,0
		c2.18-18.778,4.348-37.452,6.514-56.128c0.11-0.013,0.22-0.025,0.33-0.037C134.998,69.117,137.251,87.808,139.515,106.592z"/>
	<path fill="#FFFFFF" d="M489.331,12.538h-23.127v92.604c0,19.821-6.073,22.554-12.636,22.554c-10.521,0-12.635-8.775-12.635-22.934
		V12.538h-25.099v93.747c0,29.954,11.071,42.734,37.017,42.734c25.908,0,36.479-12.491,36.479-43.116V12.538z"/>
	<path fill="#FFFFFF" d="M530.873,69.147c-10.19-8.23-18.993-15.339-18.993-25.295c0-6.879,3.976-11.323,10.126-11.323
		c9.383,0,12.848,10.099,15.03,20.503l21.446-5.467c-5.89-26.32-16.22-37.121-35.222-37.121c-22.059,0-35.761,13.53-35.761,35.312
		c0,21.017,14.792,32.886,27.843,43.357c10.546,8.465,19.655,15.774,19.655,26.498c0,5.84-3.026,12.655-11.558,12.655
		c-11.37,0-14.921-11.468-16.959-23.151l-20.912,3.776c4.637,28.724,15.689,40.508,37.691,40.508
		c21.604,0,36.118-14.266,36.118-35.501C559.379,92.171,544.235,79.939,530.873,69.147z"/>
</g>
</svg>
