<?xml version="1.0" encoding="utf-8"?>
<!-- Generator: Adobe Illustrator 16.0.0, SVG Export Plug-In . SVG Version: 6.00 Build 0)  -->
<!DOCTYPE svg PUBLIC "-//W3C//DTD SVG 1.1//EN" "http://www.w3.org/Graphics/SVG/1.1/DTD/svg11.dtd">
<svg version="1.1" id="Layer_1" xmlns="http://www.w3.org/2000/svg" xmlns:xlink="http://www.w3.org/1999/xlink" x="0px" y="0px"
	 width="24px" height="21px" viewBox="0 0 24 21" enable-background="new 0 0 24 21" xml:space="preserve">
<g>
	<path fill-rule="evenodd" clip-rule="evenodd" fill="#FFFFFF" d="M9.561,0.5c0.909,0.241,1.859,0.381,2.719,0.741
		c3.173,1.33,5.205,4.768,4.91,8.162c-0.321,3.692-2.817,6.606-6.307,7.47c-4.809,1.19-9.691-2.112-10.223-7.102
		C0.649,9.672,0.609,9.576,0.583,9.478c0-0.444,0-0.889,0-1.333C0.611,8.031,0.648,7.92,0.665,7.805
		c0.443-3.118,2.103-5.343,4.974-6.606C6.448,0.843,7.362,0.726,8.228,0.5C8.672,0.5,9.116,0.5,9.561,0.5z M15.066,8.815
		c0.001-3.371-2.771-6.154-6.144-6.17C5.545,2.628,2.723,5.44,2.727,8.818c0.004,3.372,2.787,6.161,6.151,6.166
		C12.277,14.987,15.065,12.209,15.066,8.815z"/>
	<path fill-rule="evenodd" clip-rule="evenodd" fill="#FFFFFF" d="M18.449,20.5c-0.452-0.315-0.951-0.581-1.348-0.955
		c-1.086-1.024-2.129-2.094-3.137-3.094c0.857-0.855,1.688-1.684,2.548-2.542c0.041,0.038,0.158,0.139,0.268,0.247
		c0.953,0.951,1.925,1.884,2.848,2.863c0.374,0.396,0.64,0.895,0.955,1.347c0,0.237,0,0.475,0,0.712
		c-0.256,0.692-0.729,1.166-1.422,1.422C18.924,20.5,18.687,20.5,18.449,20.5z"/>
</g>
</svg>
