<?xml version="1.0" encoding="utf-8"?>
<!-- Generator: Adobe Illustrator 16.0.0, SVG Export Plug-In . SVG Version: 6.00 Build 0)  -->
<!DOCTYPE svg PUBLIC "-//W3C//DTD SVG 1.1//EN" "http://www.w3.org/Graphics/SVG/1.1/DTD/svg11.dtd">
<svg version="1.1" id="Layer_1" xmlns="http://www.w3.org/2000/svg" xmlns:xlink="http://www.w3.org/1999/xlink" x="0px" y="0px"
	 width="24px" height="21px" viewBox="0 0 24 21" enable-background="new 0 0 24 21" xml:space="preserve">
<g>
	<path fill="#2E2C25" d="M10.979,0.5c0.908,0.241,1.858,0.381,2.718,0.741c3.174,1.33,5.205,4.768,4.91,8.162
		c-0.32,3.693-2.816,6.606-6.307,7.47c-4.809,1.189-9.691-2.112-10.223-7.102C2.066,9.672,2.026,9.576,2,9.478
		c0-0.444,0-0.889,0-1.333c0.028-0.114,0.065-0.225,0.082-0.34c0.443-3.118,2.103-5.343,4.974-6.606
		C7.865,0.843,8.779,0.726,9.645,0.5C10.089,0.5,10.533,0.5,10.979,0.5z M16.483,8.815c0-3.371-2.771-6.154-6.145-6.17
		C6.962,2.628,4.14,5.44,4.144,8.818c0.004,3.372,2.787,6.161,6.151,6.167C13.694,14.986,16.481,12.209,16.483,8.815z"/>
	<path fill="#2E2C25" d="M19.866,20.5c-0.452-0.314-0.951-0.581-1.348-0.955c-1.086-1.023-2.129-2.094-3.138-3.094
		c0.856-0.855,1.688-1.684,2.548-2.542c0.041,0.038,0.158,0.139,0.268,0.247c0.953,0.951,1.926,1.884,2.849,2.863
		c0.374,0.396,0.64,0.895,0.955,1.347c0,0.237,0,0.475,0,0.712c-0.256,0.691-0.729,1.166-1.422,1.422
		C20.341,20.5,20.104,20.5,19.866,20.5z"/>
</g>
</svg>
