<?xml version="1.0" encoding="utf-8"?>
<!-- Generator: Adobe Illustrator 16.0.0, SVG Export Plug-In . SVG Version: 6.00 Build 0)  -->
<!DOCTYPE svg PUBLIC "-//W3C//DTD SVG 1.1//EN" "http://www.w3.org/Graphics/SVG/1.1/DTD/svg11.dtd">
<svg version="1.1" id="Layer_1" xmlns="http://www.w3.org/2000/svg" xmlns:xlink="http://www.w3.org/1999/xlink" x="0px" y="0px"
	 width="21px" height="21px" viewBox="0 0 21 21" enable-background="new 0 0 21 21" xml:space="preserve">
<g>
	<g>
		<path fill="#FFFFFF" d="M14.422,2.5c0.701,0,1.407,0.246,2.159,0.752c1.024,0.689,1.71,1.874,1.88,3.249
			c0.178,1.444-0.234,2.842-1.129,3.835c-1.902,2.105-3.864,4.227-5.764,6.277l-1.073,1.16l-1.054-1.142
			c-1.896-2.054-3.791-4.106-5.675-6.172C2.16,8.7,2.069,5.875,3.559,4.031C4.34,3.064,5.405,2.532,6.558,2.532
			c0.879,0,1.733,0.315,2.471,0.913c0.059,0.048,0.12,0.093,0.196,0.147l0.064,0.047l1.213,0.896l1.195-0.92
			C12.658,2.875,13.574,2.5,14.422,2.5 M14.422,0.5c-1.333,0-2.648,0.533-3.945,1.53c-0.086-0.063-0.141-0.1-0.191-0.141
			C9.16,0.978,7.851,0.532,6.558,0.532c-1.693,0-3.359,0.763-4.554,2.241C-0.1,5.378,0.011,9.312,2.289,11.809
			c2.514,2.756,5.047,5.488,7.574,8.229c0.286,0.31,0.463,0.462,0.637,0.462c0.163,0,0.322-0.133,0.564-0.396
			c2.59-2.805,5.192-5.593,7.752-8.429c2.646-2.934,2.101-7.918-1.118-10.083C16.598,0.853,15.504,0.5,14.422,0.5L14.422,0.5z"/>
	</g>
</g>
</svg>
